<svg width="63" height="87" viewBox="0 0 63 87" fill="none" xmlns="http://www.w3.org/2000/svg">
      <path d="M58.0393 26.9006C57.1264 17.4492 48.9666 14.2841 38.6653 13.3859L38.66 0.275602L30.6796 0.279973L30.6855 13.045C28.5873 13.0457 26.4431 13.0881 24.3123 13.1314L24.3083 0.281699L16.3326 0.2849L16.3353 13.3916C14.608 13.4277 12.9108 13.4609 11.2566 13.4623L11.2556 13.4213L0.249073 13.4218L0.254661 21.9451C0.254661 21.9451 6.14766 21.8306 6.04984 21.9386C9.28177 21.9381 10.3349 23.8146 10.6422 25.4337L10.6488 40.3693C10.8716 40.3702 11.1625 40.3793 11.4925 40.4249C11.2263 40.4253 10.9426 40.424 10.6493 40.4268L10.6556 61.3502C10.5147 62.3674 9.91743 63.9902 7.65886 63.9947C7.7614 64.085 1.85807 63.9958 1.85807 63.9958L0.275952 73.5272L10.6614 73.5226C12.5941 73.5244 14.4956 73.5565 16.363 73.5669L16.3719 86.8267L24.3436 86.8245L24.3376 73.7047C26.5267 73.7492 28.6444 73.7657 30.7129 73.7631L30.7147 86.8221L38.6954 86.8177L38.6919 73.5813C52.1085 72.8062 61.4972 69.4228 62.6577 56.8227C63.5948 46.6774 58.821 42.1528 51.2048 40.3271C55.831 37.9689 58.7221 33.8167 58.0422 26.901L58.0394 26.8999L58.0393 26.9006ZM46.8858 55.2576C46.8941 65.1668 29.9269 64.0468 24.5183 64.0541L24.5133 46.4854C29.9232 46.4849 46.8823 44.922 46.8862 55.2575L46.8858 55.2576ZM43.1639 30.4722C43.1653 39.4872 29.0149 38.4412 24.5099 38.4433L24.5041 22.5099C29.0091 22.5078 43.1595 21.0698 43.1645 30.4721L43.1639 30.4722Z" fill="gray" />
    </svg>
